<svg xmlns="http://www.w3.org/2000/svg" viewBox="0 0 1200 630" fill="none">
  <rect width="1200" height="630" fill="#0B1F3A"/>
  <rect x="60" y="60" width="1080" height="510" rx="16" fill="#0F2A4F"/>
  <rect x="300" y="220" width="100" height="60" rx="4" fill="#D4AF37" fill-opacity="0.08" stroke="#D4AF37" stroke-opacity="0.2" stroke-width="1"/>
  <rect x="310" y="230" width="80" height="8" rx="2" fill="#D4AF37" fill-opacity="0.15"/>
  <rect x="310" y="245" width="60" height="6" rx="2" fill="#D4AF37" fill-opacity="0.1"/>
  <rect x="420" y="240" width="100" height="60" rx="4" fill="#D4AF37" fill-opacity="0.06" stroke="#D4AF37" stroke-opacity="0.15" stroke-width="1"/>
  <rect x="430" y="250" width="80" height="8" rx="2" fill="#D4AF37" fill-opacity="0.12"/>
  <rect x="430" y="265" width="60" height="6" rx="2" fill="#D4AF37" fill-opacity="0.08"/>
  <rect x="540" y="230" width="100" height="60" rx="4" fill="#D4AF37" fill-opacity="0.08" stroke="#D4AF37" stroke-opacity="0.2" stroke-width="1"/>
  <rect x="550" y="240" width="80" height="8" rx="2" fill="#D4AF37" fill-opacity="0.15"/>
  <rect x="550" y="255" width="60" height="6" rx="2" fill="#D4AF37" fill-opacity="0.1"/>
  <text x="600" y="130" text-anchor="middle" font-family="Poppins, sans-serif" font-size="18" font-weight="600" fill="#D4AF37" letter-spacing="5">RMRP GLOBAL TRADE</text>
  <text x="600" y="175" text-anchor="middle" font-family="Inter, sans-serif" font-size="36" font-weight="700" fill="#FFFFFF">Aluminum Ingots &amp; Scrap</text>
  <text x="600" y="380" text-anchor="middle" font-family="Inter, sans-serif" font-size="20" font-weight="400" fill="#C8CDD4">Premium Grade (99.5%–99.9%) • Zorba • Twitch • 6061/6063</text>
  <text x="600" y="415" text-anchor="middle" font-family="Inter, sans-serif" font-size="20" font-weight="400" fill="#C8CDD4">Litho Sheets • UBC • Turnings • All Grades Available</text>
  <line x1="400" y1="460" x2="800" y2="460" stroke="#D4AF37" stroke-width="3"/>
  <text x="600" y="500" text-anchor="middle" font-family="Inter, sans-serif" font-size="17" font-weight="400" fill="#9EA4AE">Export Quality • ASTM/ISO Standards • Full Documentation</text>
</svg>
