<svg xmlns="http://www.w3.org/2000/svg" viewBox="0 0 1200 630" fill="none">
  <rect width="1200" height="630" fill="#0B1F3A"/>
  <rect x="60" y="60" width="1080" height="510" rx="16" fill="#0F2A4F"/>
  <rect x="220" y="180" width="180" height="200" rx="8" fill="#D4AF37" fill-opacity="0.05" stroke="#D4AF37" stroke-opacity="0.2" stroke-width="1"/>
  <rect x="240" y="200" width="140" height="30" rx="4" fill="#D4AF37" fill-opacity="0.15"/>
  <rect x="240" y="245" width="100" height="10" rx="3" fill="#D4AF37" fill-opacity="0.1"/>
  <rect x="240" y="265" width="80" height="10" rx="3" fill="#D4AF37" fill-opacity="0.08"/>
  <rect x="510" y="160" width="180" height="220" rx="8" fill="#D4AF37" fill-opacity="0.06" stroke="#D4AF37" stroke-opacity="0.2" stroke-width="1"/>
  <rect x="530" y="180" width="140" height="30" rx="4" fill="#D4AF37" fill-opacity="0.18"/>
  <rect x="530" y="225" width="100" height="10" rx="3" fill="#D4AF37" fill-opacity="0.12"/>
  <rect x="530" y="245" width="80" height="10" rx="3" fill="#D4AF37" fill-opacity="0.1"/>
  <rect x="800" y="180" width="180" height="200" rx="8" fill="#D4AF37" fill-opacity="0.05" stroke="#D4AF37" stroke-opacity="0.2" stroke-width="1"/>
  <rect x="820" y="200" width="140" height="30" rx="4" fill="#D4AF37" fill-opacity="0.15"/>
  <rect x="820" y="245" width="100" height="10" rx="3" fill="#D4AF37" fill-opacity="0.1"/>
  <rect x="820" y="265" width="80" height="10" rx="3" fill="#D4AF37" fill-opacity="0.08"/>
  <text x="600" y="105" text-anchor="middle" font-family="Poppins, sans-serif" font-size="18" font-weight="600" fill="#D4AF37" letter-spacing="5">RMRP GLOBAL TRADE</text>
  <text x="600" y="145" text-anchor="middle" font-family="Inter, sans-serif" font-size="36" font-weight="700" fill="#FFFFFF">Complete Product Portfolio</text>
</svg>
